<mxfile host="app.diagrams.net" modified="2021-03-23T07:26:32.886Z" agent="5.0 (Windows NT 10.0; Win64; x64) AppleWebKit/537.36 (KHTML, like Gecko) Chrome/89.0.4389.90 Safari/537.36" etag="GMDSBRk4kJkVwg0lK7hM" version="14.5.0" type="github">
  <diagram id="C5RBs43oDa-KdzZeNtuy" name="Page-1">
    <mxGraphModel dx="1218" dy="635" grid="1" gridSize="10" guides="1" tooltips="1" connect="1" arrows="1" fold="1" page="1" pageScale="1" pageWidth="827" pageHeight="1169" math="0" shadow="0">
      <root>
        <mxCell id="WIyWlLk6GJQsqaUBKTNV-0" />
        <mxCell id="WIyWlLk6GJQsqaUBKTNV-1" parent="WIyWlLk6GJQsqaUBKTNV-0" />
        <mxCell id="kBEZxtI537ZEZEQTBntG-3" value="" style="edgeStyle=orthogonalEdgeStyle;rounded=0;orthogonalLoop=1;jettySize=auto;html=1;" edge="1" parent="WIyWlLk6GJQsqaUBKTNV-1" source="kBEZxtI537ZEZEQTBntG-1" target="kBEZxtI537ZEZEQTBntG-2">
          <mxGeometry relative="1" as="geometry" />
        </mxCell>
        <mxCell id="kBEZxtI537ZEZEQTBntG-1" value="input" style="text;html=1;strokeColor=none;fillColor=none;align=center;verticalAlign=middle;whiteSpace=wrap;rounded=0;" vertex="1" parent="WIyWlLk6GJQsqaUBKTNV-1">
          <mxGeometry x="50" y="190" width="40" height="20" as="geometry" />
        </mxCell>
        <object label="" id="kBEZxtI537ZEZEQTBntG-5">
          <mxCell style="edgeStyle=orthogonalEdgeStyle;rounded=0;orthogonalLoop=1;jettySize=auto;html=1;" edge="1" parent="WIyWlLk6GJQsqaUBKTNV-1" source="kBEZxtI537ZEZEQTBntG-2" target="kBEZxtI537ZEZEQTBntG-4">
            <mxGeometry relative="1" as="geometry" />
          </mxCell>
        </object>
        <mxCell id="kBEZxtI537ZEZEQTBntG-19" style="edgeStyle=orthogonalEdgeStyle;rounded=0;orthogonalLoop=1;jettySize=auto;html=1;exitX=0.5;exitY=1;exitDx=0;exitDy=0;entryX=0;entryY=0.5;entryDx=0;entryDy=0;" edge="1" parent="WIyWlLk6GJQsqaUBKTNV-1" source="kBEZxtI537ZEZEQTBntG-2" target="kBEZxtI537ZEZEQTBntG-10">
          <mxGeometry relative="1" as="geometry" />
        </mxCell>
        <mxCell id="kBEZxtI537ZEZEQTBntG-2" value="split" style="text;html=1;strokeColor=none;fillColor=none;align=center;verticalAlign=middle;whiteSpace=wrap;rounded=0;" vertex="1" parent="WIyWlLk6GJQsqaUBKTNV-1">
          <mxGeometry x="170" y="190" width="40" height="20" as="geometry" />
        </mxCell>
        <mxCell id="kBEZxtI537ZEZEQTBntG-7" value="" style="edgeStyle=orthogonalEdgeStyle;rounded=0;orthogonalLoop=1;jettySize=auto;html=1;" edge="1" parent="WIyWlLk6GJQsqaUBKTNV-1" source="kBEZxtI537ZEZEQTBntG-4" target="kBEZxtI537ZEZEQTBntG-6">
          <mxGeometry relative="1" as="geometry" />
        </mxCell>
        <mxCell id="kBEZxtI537ZEZEQTBntG-4" value="split" style="text;html=1;strokeColor=none;fillColor=none;align=center;verticalAlign=middle;whiteSpace=wrap;rounded=0;" vertex="1" parent="WIyWlLk6GJQsqaUBKTNV-1">
          <mxGeometry x="290" y="190" width="40" height="20" as="geometry" />
        </mxCell>
        <mxCell id="kBEZxtI537ZEZEQTBntG-9" value="" style="edgeStyle=orthogonalEdgeStyle;rounded=0;orthogonalLoop=1;jettySize=auto;html=1;" edge="1" parent="WIyWlLk6GJQsqaUBKTNV-1" source="kBEZxtI537ZEZEQTBntG-6" target="kBEZxtI537ZEZEQTBntG-8">
          <mxGeometry relative="1" as="geometry" />
        </mxCell>
        <mxCell id="kBEZxtI537ZEZEQTBntG-6" value="overlay" style="text;html=1;strokeColor=none;fillColor=none;align=center;verticalAlign=middle;whiteSpace=wrap;rounded=0;" vertex="1" parent="WIyWlLk6GJQsqaUBKTNV-1">
          <mxGeometry x="410" y="190" width="40" height="20" as="geometry" />
        </mxCell>
        <mxCell id="kBEZxtI537ZEZEQTBntG-8" value="output" style="text;html=1;strokeColor=none;fillColor=none;align=center;verticalAlign=middle;whiteSpace=wrap;rounded=0;" vertex="1" parent="WIyWlLk6GJQsqaUBKTNV-1">
          <mxGeometry x="530" y="190" width="40" height="20" as="geometry" />
        </mxCell>
        <mxCell id="kBEZxtI537ZEZEQTBntG-13" value="" style="edgeStyle=orthogonalEdgeStyle;rounded=0;orthogonalLoop=1;jettySize=auto;html=1;" edge="1" parent="WIyWlLk6GJQsqaUBKTNV-1" source="kBEZxtI537ZEZEQTBntG-10" target="kBEZxtI537ZEZEQTBntG-12">
          <mxGeometry relative="1" as="geometry" />
        </mxCell>
        <mxCell id="kBEZxtI537ZEZEQTBntG-10" value="crop" style="text;html=1;strokeColor=none;fillColor=none;align=center;verticalAlign=middle;whiteSpace=wrap;rounded=0;" vertex="1" parent="WIyWlLk6GJQsqaUBKTNV-1">
          <mxGeometry x="220" y="290" width="40" height="20" as="geometry" />
        </mxCell>
        <mxCell id="kBEZxtI537ZEZEQTBntG-15" style="edgeStyle=orthogonalEdgeStyle;rounded=0;orthogonalLoop=1;jettySize=auto;html=1;exitX=1;exitY=0.5;exitDx=0;exitDy=0;entryX=0.5;entryY=1;entryDx=0;entryDy=0;" edge="1" parent="WIyWlLk6GJQsqaUBKTNV-1" source="kBEZxtI537ZEZEQTBntG-12" target="kBEZxtI537ZEZEQTBntG-6">
          <mxGeometry relative="1" as="geometry" />
        </mxCell>
        <mxCell id="kBEZxtI537ZEZEQTBntG-12" value="vflip" style="text;html=1;strokeColor=none;fillColor=none;align=center;verticalAlign=middle;whiteSpace=wrap;rounded=0;" vertex="1" parent="WIyWlLk6GJQsqaUBKTNV-1">
          <mxGeometry x="350" y="290" width="40" height="20" as="geometry" />
        </mxCell>
        <mxCell id="kBEZxtI537ZEZEQTBntG-16" value="tmp" style="text;html=1;strokeColor=none;fillColor=none;align=center;verticalAlign=middle;whiteSpace=wrap;rounded=0;" vertex="1" parent="WIyWlLk6GJQsqaUBKTNV-1">
          <mxGeometry x="190" y="230" width="40" height="20" as="geometry" />
        </mxCell>
      </root>
    </mxGraphModel>
  </diagram>
</mxfile>
